<svg xmlns="http://www.w3.org/2000/svg" width="245" height="60" viewBox="0 0 245 60" fill="none"><path d="M51.2964 29.9787C51.2964 18.4279 59.491 10.9089 71.0343 10.9089C76.6698 10.9089 80.8079 12.6252 84.0749 14.9408L80.209 20.798C77.9766 19.2179 74.873 17.7741 70.9798 17.7741C63.8742 17.7741 58.5926 22.5415 58.5926 30.006C58.5926 37.4705 63.8742 42.2379 70.9798 42.2379C74.9002 42.2379 77.9766 40.7668 80.209 39.214L84.0749 45.0711C80.7807 47.3595 76.6698 49.103 71.0343 49.103C59.491 49.0485 51.2964 41.5296 51.2964 29.9787Z" fill="#E26134"></path><path d="M85.3273 36.2171C85.3273 27.9626 90.6089 23.3586 96.925 23.3586C100.845 23.3586 103.459 25.0204 104.956 27.5268H105.065V24.1487H111.436V48.2856H105.065V44.8803H104.956C103.432 47.3866 100.818 49.0484 96.925 49.0484C90.6089 49.0484 85.3273 44.4716 85.3273 36.2171ZM105.065 36.2171C105.065 32.1308 102.397 29.4337 98.5312 29.4337C94.6653 29.4337 91.9973 32.158 91.9973 36.2171C91.9973 40.3035 94.6653 43.0005 98.5312 43.0005C102.424 43.0005 105.065 40.2763 105.065 36.2171Z" fill="#E26134"></path><path d="M123.605 44.8804H123.496V48.2858H117.071V11.699H123.496V27.5269H123.605C125.13 25.0206 127.743 23.3588 131.636 23.3588C137.953 23.3588 143.234 27.9628 143.234 36.2173C143.234 44.4718 137.953 49.0758 131.636 49.0758C127.743 49.0486 125.13 47.3868 123.605 44.8804ZM136.564 36.2173C136.564 32.1309 133.896 29.4339 130.03 29.4339C126.164 29.4339 123.496 32.1581 123.496 36.2173C123.496 40.3037 126.164 43.0007 130.03 43.0007C133.896 43.0007 136.564 40.2764 136.564 36.2173Z" fill="#E26134"></path><path d="M153.933 11.699V48.2585H147.536V11.699H153.933Z" fill="#E26134"></path><path d="M182.492 36.2716V37.5248H164.469C164.823 41.2298 167.546 43.3819 171.248 43.3819C174.706 43.3819 177.102 41.4477 178.463 40.0856L181.703 44.7441C179.552 46.7328 176.312 49.0756 171.248 49.0756C163.353 49.0756 158.235 43.954 158.235 36.2716C158.235 28.5892 163.19 23.3586 170.758 23.3586C178.109 23.3586 182.492 28.0171 182.492 36.2716ZM164.66 33.3839H176.04C175.822 30.3055 173.644 28.5347 170.513 28.5347C167.41 28.5347 165.177 30.0331 164.66 33.3839Z" fill="#E26134"></path><path d="M185.106 36.2171C185.106 28.4802 190.632 23.3586 198.419 23.3586C201.713 23.3586 204.381 24.2032 206.885 25.756L204.109 31.0411C202.53 30.0603 200.705 29.3793 198.527 29.3793C194.553 29.3793 191.694 32.158 191.694 36.2171C191.694 40.3035 194.553 43.055 198.527 43.055C200.733 43.055 202.557 42.374 204.109 41.3932L206.885 46.6783C204.381 48.2584 201.713 49.0756 198.419 49.0756C190.66 49.0484 185.106 43.954 185.106 36.2171Z" fill="#E26134"></path><path d="M234.355 36.2171C234.355 43.7906 228.665 49.0756 220.988 49.0756C213.31 49.0756 207.62 43.7906 207.62 36.2171C207.62 28.6437 213.31 23.3586 220.988 23.3586C228.665 23.3586 234.355 28.6437 234.355 36.2171ZM214.209 36.2171C214.209 40.358 217.067 43.0005 220.988 43.0005C224.908 43.0005 227.712 40.3308 227.712 36.2171C227.712 32.0763 224.881 29.4337 220.988 29.4337C217.067 29.4065 214.209 32.0763 214.209 36.2171Z" fill="#E26134"></path><path d="M245 11.699V48.2585H238.575V11.699H245Z" fill="#E26134"></path><path d="M37.4118 29.0252C37.1396 28.7528 36.8673 28.5621 36.5406 28.3714C35.0433 27.5268 33.0831 27.7448 31.8035 29.0252L15.0604 45.7794C14.7064 46.1335 14.1075 46.1335 13.7263 45.7794C13.3724 45.4252 13.3724 44.8259 13.7263 44.4445L35.1249 23.0318L35.2611 22.8956C36.8129 21.3428 36.8129 18.8365 35.2611 17.2836C33.7093 15.7308 31.2046 15.7308 29.6528 17.2836L25.5691 21.37L4.7422 42.2106L4.57885 42.3741C4.22493 42.7282 3.62599 42.7282 3.24484 42.3741C2.97259 42.1016 2.89092 41.6657 3.05427 41.3388C3.10872 41.2299 3.16317 41.1481 3.24484 41.0664L22.1932 22.1056C22.5471 21.7514 22.8194 21.3428 23.01 20.9069C23.6634 19.463 23.3911 17.6923 22.1932 16.4936C21.2676 15.5674 20.0425 15.2132 18.8446 15.3767C18.0278 15.4856 17.2111 15.867 16.5849 16.4936L4.76942 28.3441C4.4155 28.6983 3.81656 28.6983 3.43541 28.3441C3.43541 28.3441 3.40819 28.3169 3.40819 28.2896C3.19039 28.0445 3.10872 27.6903 3.21762 27.3906C3.27207 27.2544 3.32652 27.1182 3.43541 27.0092L17.5106 12.9248L23.6634 6.768C25.2152 5.21517 25.2152 2.70886 23.6634 1.15603C23.0644 0.556692 22.3566 0.202538 21.5943 0.0663256C20.6959 -0.0971299 19.743 0.039083 18.9263 0.502207C18.6268 0.665662 18.3273 0.883603 18.0823 1.15603L3.38096 15.867L3.48986 15.976L5.53171 18.0192L20.233 3.30819C20.587 2.95404 21.1859 2.95404 21.5671 3.30819C21.921 3.66235 21.921 4.26168 21.5671 4.64308L2.4281 23.7674L1.31189 24.8843C-0.239917 26.4371 -0.239917 28.9435 1.31189 30.4963C1.66581 30.8504 2.04696 31.1229 2.48255 31.3136C3.95268 31.9674 5.72229 31.695 6.92017 30.4963L18.7629 18.6185C19.1168 18.2644 19.7158 18.2644 20.0969 18.6185C20.4508 18.9727 20.4508 19.572 20.0969 19.9534L1.14854 38.9142C0.821845 39.2412 0.576823 39.5953 0.413475 39.9495C-0.321592 41.4206 -0.0765694 43.2731 1.14854 44.499C2.70035 46.0518 5.20502 46.0518 6.75683 44.499L7.62802 43.6272L29.2716 21.9694L31.8308 19.4086C32.1847 19.0544 32.7836 19.0544 33.1648 19.4086C33.5187 19.7627 33.5187 20.362 33.1648 20.7434L31.5313 22.378L11.63 42.2923C10.8405 43.0824 10.4594 44.0903 10.4594 45.1256C10.4594 46.1335 10.8405 47.1415 11.63 47.9043C12.6374 48.9123 14.0258 49.2664 15.3054 48.9668C16.0132 48.8033 16.6938 48.4491 17.2383 47.9043L33.9815 31.1501C34.3354 30.796 34.9344 30.796 35.3155 31.1501C35.6694 31.5043 35.6694 32.1036 35.3155 32.485L20.6142 47.196C19.2257 48.5854 19.0896 50.7375 20.1786 52.2631C20.3147 52.4538 20.4508 52.6173 20.6142 52.808C22.1115 54.3063 24.4801 54.3608 26.0319 52.9714C26.0863 52.9169 26.168 52.8624 26.2225 52.808L30.3062 48.7216C30.4967 48.5309 30.7145 48.4491 30.9596 48.4491C31.2046 48.4491 31.4496 48.5309 31.6402 48.7216C31.9941 49.0757 31.9941 49.6751 31.6402 50.0565L30.3606 51.3369L25.2152 56.4857L23.8539 57.8478L26.0047 60L26.9575 59.0465L29.2172 56.7854L33.8182 52.1814C35.37 50.6286 35.37 48.1222 33.8182 46.5694C32.6203 45.3707 30.8234 45.0983 29.3533 45.7794C28.9449 45.9701 28.5638 46.2425 28.2099 46.5694L24.1262 50.6558C23.7722 51.0099 23.1733 51.0099 22.7922 50.6558C22.4382 50.3016 22.4382 49.7023 22.7922 49.3209L29.0811 43.0279L34.3627 37.7428L37.4118 34.6916L37.4935 34.6099C38.9636 33.0843 38.9636 30.5508 37.4118 29.0252Z" fill="#E26134"></path></svg>